<svg width="205" height="45" viewBox="0 0 205 45" fill="none" xmlns="http://www.w3.org/2000/svg" aria-hidden="true">
  <g fill="currentColor">
    <path d="M66.3617 11.4272C72.694 11.4272 76.6766 15.4496 76.6766 22.22C76.6766 29.1496 72.694 33.2517 66.3617 33.2517C60.0693 33.2517 56.0469 29.1496 56.0469 22.22C56.0469 15.4496 60.0693 11.4272 66.3617 11.4272ZM66.3617 30.663C69.6673 30.663 71.1807 28.154 71.1807 22.22C71.1807 16.4452 69.6673 14.0159 66.3617 14.0159C63.096 14.0159 61.5827 16.4452 61.5827 22.22C61.5827 28.154 63.096 30.663 66.3617 30.663Z"/>
    <path d="M86.6595 33.252C82.5575 33.252 80.3272 30.7032 80.3272 26.4816V14.8525L77.4905 14.8525V11.8257L85.6639 11.8257V25.6055C85.6639 28.2738 87.0976 29.7872 89.4473 29.7872C91.8369 29.7872 93.5095 28.1543 93.5095 24.9682V14.8525L90.872 14.8525V11.8257L98.886 11.8257V29.827L101.683 29.827V32.8537L93.5095 32.8537V29.1898H92.6732C91.2395 32.0572 89.4473 33.252 86.6595 33.252Z"/>
    <path d="M115.754 26.4819V23.7339H118.144V26.4819C118.144 30.7831 115.794 33.2523 111.772 33.2523C107.63 33.2523 105.161 30.9026 105.161 26.5616V14.8528H101.536V11.8261H105.24C106.116 11.8261 106.554 11.5074 106.554 10.4321V6.09114L110.497 6.09114V11.8261H116.989V14.8528H110.497V26.4819C110.497 28.6325 111.413 29.7875 113.006 29.7875C114.719 29.7875 115.754 28.6325 115.754 26.4819Z"/>
    <path d="M130.376 32.854L119.366 32.854V29.8273H122.163V6.80801L119.366 6.80801V3.78125L127.539 3.78125V29.8273L130.376 29.8273V32.854Z"/>
    <path d="M152.947 27.9953V23.8933H155.496V27.9953C155.496 31.3805 153.306 33.2523 150.12 33.2523C148.248 33.2523 145.779 32.2965 144.942 29.3494H143.986C143.07 31.7788 140.681 33.2523 137.774 33.2523C134.229 33.2523 131.68 31.3407 131.68 27.9555C131.68 22.5392 137.654 20.8267 144.584 21.4639V18.4371C144.584 15.6493 143.15 14.2156 140.362 14.2156C137.335 14.2156 135.623 15.9281 135.623 19.1142H132.596C132.596 14.1758 135.742 11.4278 141.318 11.4278C146.854 11.4278 149.96 13.9368 149.96 18.9947V28.5529C149.96 29.9069 150.558 30.3849 151.394 30.3849C152.39 30.3849 152.947 29.5883 152.947 27.9953ZM140.561 30.1459C142.831 30.1459 144.584 28.9511 144.584 25.6058V23.7738C139.128 23.0171 137.296 24.8889 137.296 27.1191C137.296 28.8316 138.49 30.1459 140.561 30.1459Z"/>
    <path d="M166.8 32.854H156.109V29.8273L158.946 29.8273V14.8528H156.109V11.8261H164.322V15.6493L165.158 15.6493C166.234 13.0606 168.345 11.4278 171.252 11.4278C174.876 11.4278 177.504 14.2156 177.504 18.3575V29.8273H180.301V32.854H169.69V29.8273H172.168V19.2336C172.168 16.5653 170.734 14.8926 168.424 14.8926C165.955 14.8926 164.322 16.8441 164.322 20.1496V29.8273H166.8V32.854Z"/>
    <path d="M201.609 3.78155V29.8276L204.406 29.8273V32.854L197.148 32.8544V28.6328H195.635C194.56 31.6198 192.409 33.2526 189.143 33.2526C184.245 33.2526 181.059 29.3497 181.059 22.3802C181.059 15.3708 184.245 11.4281 189.143 11.4281C192.011 11.4281 194.082 12.7025 195.237 15.0921H196.232V6.80831L193.436 6.80831V3.78155L201.609 3.78155ZM191.413 30.0666C194.56 30.0666 196.232 27.5177 196.232 22.3802C196.232 17.2028 194.56 14.5743 191.413 14.5743C188.307 14.5743 186.555 17.2028 186.555 22.3802C186.555 27.4779 188.307 30.0666 191.413 30.0666Z"/>
    <path d="M5.41475 25.1325H2.62229V22.3401H5.41475V25.1325Z"/>
    <path d="M10.9997 25.1325H8.2072V22.3401H10.9997V25.1325Z"/>
    <path d="M16.5846 25.1325H13.7921V22.3401H16.5846V25.1325Z"/>
    <path d="M44.3359 25.1325H41.6287C41.5043 26.1196 41.2484 27.0878 40.8661 28.0108C40.3047 29.366 39.482 30.5973 38.4448 31.6345C37.4075 32.6717 36.1762 33.4945 34.821 34.0558C33.4658 34.6172 32.0133 34.9061 30.5465 34.9061C29.0797 34.9061 27.6272 34.6172 26.272 34.0558C24.9168 33.4945 23.6855 32.6717 22.6483 31.6345C21.611 30.5973 20.7883 29.366 20.2269 28.0108C19.8446 27.0878 19.5887 26.1196 19.4643 25.1325H16.5846V27.925H13.7921V25.1325H10.9997V27.925H8.2072V25.1325H5.41475V27.925H2.62229V25.1325H0.00234222C1.3765 36.1524 10.777 44.6797 22.1691 44.6797C33.5613 44.6797 42.9618 36.1524 44.3359 25.1325Z"/>
    <path d="M0.00234222 19.5476H2.70957C2.83393 18.5605 3.08988 17.5924 3.47221 16.6693C4.03355 15.3141 4.85631 14.0828 5.89352 13.0456C6.93074 12.0084 8.16209 11.1856 9.51728 10.6243C10.8725 10.0629 12.3249 9.77401 13.7918 9.77401C15.2586 9.77401 16.7111 10.0629 18.0663 10.6243C19.4215 11.1856 20.6528 12.0084 21.69 13.0456C22.7272 14.0828 23.55 15.3141 24.1113 16.6693C24.4937 17.5924 24.7496 18.5605 24.874 19.5476H27.7544V16.7551H30.5468V19.5476H33.3393V16.7551H36.1317V19.5476H38.9242V16.7551H41.7166V19.5476H44.3359C42.9618 8.52771 33.5613 0.000427246 22.1691 0.000427246C10.777 0.000427246 1.3765 8.52771 0.00234222 19.5476Z"/>
    <path d="M30.5468 22.3401H27.7544V19.5476H30.5468V22.3401Z"/>
    <path d="M36.1317 22.3401H33.3393V19.5476H36.1317V22.3401Z"/>
    <path d="M41.7166 22.3401H38.9242V19.5476H41.7166V22.3401Z"/>
  </g>
</svg>
